<?xml version="1.0" standalone="no"?>
<!DOCTYPE svg PUBLIC "-//W3C//DTD SVG 20010904//EN"
 "http://www.w3.org/TR/2001/REC-SVG-20010904/DTD/svg10.dtd">
<svg version="1.0" xmlns="http://www.w3.org/2000/svg"
 width="512.000000pt" height="512.000000pt" viewBox="0 0 512.000000 512.000000"
 preserveAspectRatio="xMidYMid meet">
<metadata>
Created by potrace 1.14, written by Peter Selinger 2001-2017
</metadata>
<g transform="translate(0.000000,512.000000) scale(0.100000,-0.100000)"
fill="#000000" stroke="none">
<path d="M2486 3836 c-8 -275 -6 -403 8 -436 4 -11 -6 -21 -36 -35 -58 -28
-98 -87 -105 -156 -5 -52 -7 -55 -46 -74 -95 -45 -595 -355 -622 -385 -16 -18
-17 -21 -1 -45 9 -14 23 -25 31 -25 8 0 144 66 301 147 201 104 301 162 337
194 l52 47 48 -24 c39 -20 46 -28 42 -47 -2 -12 -9 -105 -15 -207 -16 -278
-51 -804 -53 -806 -1 -1 -33 -11 -72 -23 -38 -12 -144 -58 -235 -101 -91 -43
-187 -86 -215 -96 -74 -25 -190 -43 -276 -44 -72 0 -79 2 -122 35 -61 47 -189
192 -245 279 -167 257 -260 585 -245 859 l4 77 -511 0 -510 0 0 -1485 0 -1485
2560 0 2560 0 0 1485 0 1485 -544 0 -543 0 -6 -162 c-9 -292 -85 -530 -242
-768 -69 -104 -215 -266 -271 -300 -40 -25 -115 -28 -232 -10 -120 19 -189 45
-397 145 -71 34 -152 71 -180 80 -27 10 -53 21 -56 24 -6 6 -22 196 -54 666
-8 121 -18 257 -21 302 l-6 81 43 19 44 20 46 -42 c26 -22 127 -83 225 -135
99 -51 229 -119 290 -152 96 -50 116 -57 138 -48 41 15 36 59 -12 89 -187 123
-609 381 -622 381 -4 0 -11 23 -14 52 -4 28 -13 63 -21 78 -18 35 -69 78 -102
86 -20 5 -23 11 -17 28 14 41 16 183 4 395 -6 118 -14 219 -17 224 -3 5 -14
-1 -24 -14 l-17 -23 -6 44 c-3 25 -7 56 -9 70 -2 14 -7 -105 -11 -264z"/>
</g>
</svg>
