<svg width="474" height="186" viewBox="0 0 474 186" fill="none" xmlns="http://www.w3.org/2000/svg">
<path d="M474 0H0V186H474V0Z" fill="black"/>
<path d="M346.8 37H293.6V90.2H346.8V37Z" fill="#F25022"/>
<path d="M405.6 37H352.4V90.2H405.6V37Z" fill="#7FBA00"/>
<path d="M346.8 95.8H293.6V149H346.8V95.8Z" fill="#00A4EF"/>
<path d="M405.6 95.8H352.4V149H405.6V95.8Z" fill="#FFB900"/>
<path d="M142.7 133.6C133.7 138.7 123.6 141.3 112.1 141.3C103.5 141.3 95.8 139.4 89.1 135.6C82.4 131.8 77.3 126.5 73.7 119.6C70.1 112.7 68.3 104.9 68.3 96.2C68.3 87 70.3 78.8 74.2 71.6C78.1 64.4 83.7 58.8 90.9 54.7C98.1 50.6 106.3 48.6 115.6 48.6C120.2 48.6 124.8 49 129.3 49.9C133.8 50.8 137.6 51.9 140.4 53.2V66.7C133.6 62.2 124.9 59.9 114.5 59.9C108.2 59.9 102.6 61.4 97.6 64.4C92.6 67.4 88.7 71.6 85.9 77C83.1 82.4 81.7 88.5 81.7 95.2C81.7 106 84.5 114.4 90.1 120.6C95.7 126.8 103.4 129.9 113.3 129.9C119.6 129.9 125.1 128.6 129.9 126.1V103H111V92H142.8V133.6H142.7Z" fill="white"/>
<path d="M213.9 111.2H169.5C169.7 117.7 171.6 122.6 175.1 126.1C178.6 129.6 183.2 131.3 189 131.3C196.6 131.3 203.3 129.1 209.1 124.7V135.6C206.6 137.4 203.4 138.7 199.5 139.8C195.6 140.8 191.6 141.4 187.4 141.4C177.7 141.4 170.2 138.5 164.8 132.7C159.5 126.9 156.8 118.8 156.8 108.3C156.8 101.8 158.1 96 160.7 90.8C163.3 85.6 166.9 81.6 171.6 78.6C176.2 75.7 181.4 74.2 187.1 74.2C195.4 74.2 201.9 76.9 206.7 82.3C211.5 87.7 213.9 95.2 213.9 104.9V111.2ZM201.5 101.4C201.5 95.9 200.2 91.6 197.6 88.7C195 85.8 191.4 84.3 186.8 84.3C182.5 84.3 178.9 85.9 175.7 89C172.6 92.1 170.5 96.3 169.7 101.5H201.5V101.4Z" fill="white"/>
<path d="M260 139.1C258.9 139.8 257.3 140.3 255.2 140.7C253.1 141.1 251.3 141.3 249.7 141.3C237.9 141.3 231.9 134.8 231.9 121.7V85.9H221.1V75.8H231.9V60.5999L244.2 56.7V75.8H260V86H244.2V119.6C244.2 123.9 244.9 126.8 246.3 128.5C247.7 130.2 250.1 131.1 253.6 131.1C256 131.1 258.1 130.4 260.1 129.1V139.1H260Z" fill="white"/>
</svg>
